<?xml version="1.0" encoding="UTF-8" standalone="no"?>
<svg
   xmlns:dc="http://purl.org/dc/elements/1.1/"
   xmlns:cc="http://creativecommons.org/ns#"
   xmlns:rdf="http://www.w3.org/1999/02/22-rdf-syntax-ns#"
   xmlns:svg="http://www.w3.org/2000/svg"
   xmlns="http://www.w3.org/2000/svg"
   xmlns:sodipodi="http://sodipodi.sourceforge.net/DTD/sodipodi-0.dtd"
   xmlns:inkscape="http://www.inkscape.org/namespaces/inkscape"
   width="210mm"
   height="297mm"
   viewBox="0 0 210 297"
   version="1.1"
   id="svg8"
   inkscape:version="1.0.2-2 (e86c870879, 2021-01-15)"
   sodipodi:docname="said.svg">
  <defs
     id="defs2" />
  <sodipodi:namedview
     id="base"
     pagecolor="#ffffff"
     bordercolor="#666666"
     borderopacity="1.0"
     inkscape:pageopacity="0.0"
     inkscape:pageshadow="2"
     inkscape:zoom="0.35"
     inkscape:cx="533.50506"
     inkscape:cy="585.39736"
     inkscape:document-units="mm"
     inkscape:current-layer="layer1"
     inkscape:document-rotation="0"
     showgrid="false"
     inkscape:window-width="1280"
     inkscape:window-height="1017"
     inkscape:window-x="-8"
     inkscape:window-y="-8"
     inkscape:window-maximized="1" />
  <metadata
     id="metadata5">
    <rdf:RDF>
      <cc:Work
         rdf:about="">
        <dc:format>image/svg+xml</dc:format>
        <dc:type
           rdf:resource="http://purl.org/dc/dcmitype/StillImage" />
        <dc:title />
      </cc:Work>
    </rdf:RDF>
  </metadata>
  <g
     inkscape:label="Layer 1"
     inkscape:groupmode="layer"
     id="layer1">
    <path
       style="color:#000000;font-style:normal;font-variant:normal;font-weight:normal;font-stretch:normal;font-size:medium;line-height:normal;font-family:sans-serif;font-variant-ligatures:normal;font-variant-position:normal;font-variant-caps:normal;font-variant-numeric:normal;font-variant-alternates:normal;font-variant-east-asian:normal;font-feature-settings:normal;font-variation-settings:normal;text-indent:0;text-align:start;text-decoration:none;text-decoration-line:none;text-decoration-style:solid;text-decoration-color:#000000;letter-spacing:normal;word-spacing:normal;text-transform:none;writing-mode:lr-tb;direction:ltr;text-orientation:mixed;dominant-baseline:auto;baseline-shift:baseline;text-anchor:start;white-space:normal;shape-padding:0;shape-margin:0;inline-size:0;clip-rule:nonzero;display:inline;overflow:visible;visibility:visible;opacity:1;isolation:auto;mix-blend-mode:normal;color-interpolation:sRGB;color-interpolation-filters:linearRGB;solid-color:#000000;solid-opacity:1;vector-effect:none;fill:#000000;fill-opacity:1;fill-rule:nonzero;stroke:none;stroke-width:0.45973;stroke-linecap:butt;stroke-linejoin:miter;stroke-miterlimit:4;stroke-dasharray:none;stroke-dashoffset:0;stroke-opacity:1;color-rendering:auto;image-rendering:auto;shape-rendering:auto;text-rendering:auto;enable-background:accumulate;stop-color:#000000;stop-opacity:1"
       d="M 90.497136,76.141521 C 53.240134,71.727362 17.358213,102.01546 29.704208,129.43776 c 9.24016,14.32937 46.813629,-5.20578 49.670357,3.06355 -13.333085,25.14428 -51.306008,45.8041 -35.345232,21.95542 4.206024,-5.38379 7.118883,-7.38862 11.526741,-7.58043 -1.238114,-1.8521 -1.457978,-2.11841 -1.566762,-4.79064 0.08451,4.2512 9.319125,6.55003 10.223188,6.53514 9.989277,-8.79591 10.046164,-12.14401 10.046164,-12.14401 -25.571568,1.96206 -36.449208,2.60995 -42.677235,15.87109 -17.870546,64.20381 81.107601,-18.56637 59.755578,-36.77999 -13.076492,5.25954 -35.967312,5.63902 -36.769435,-2.40565 -1.821025,-19.655813 11.227701,-28.757402 31.284696,-28.471725 4.976606,-0.07521 1.812097,16.322075 -8.363437,20.376455 -3.309233,1.31856 -6.505413,4.62743 -7.945133,6.50983 -5.34408,6.01433 3.468876,5.61153 11.941126,2.71688 L 96.422461,92.348774 C 104.70048,79.515161 95.29837,76.633203 90.497136,76.141521 Z"
       id="path833"
       sodipodi:nodetypes="ccccccccccccscccc" />
    <path
       style="fill:#ffffff;fill-opacity:1;stroke:none;stroke-width:0.12164px;stroke-linecap:butt;stroke-linejoin:miter;stroke-opacity:1"
       d="m 58.381387,116.22001 c 0,0 -6.076942,1.9803 -5.990063,-15.22262 3.147821,12.52484 6.250716,14.09311 6.250716,14.09311 z"
       id="path839"
       sodipodi:nodetypes="cccc" />
    <path
       style="fill:#fdfdfd;fill-opacity:1;stroke:none;stroke-width:0.12164px;stroke-linecap:butt;stroke-linejoin:miter;stroke-opacity:1"
       d="m 70.481341,110.02832 c 0,0 4.42339,-5.40638 12.041426,-5.28351 -9.888956,-3.74343 -13.024394,-3.80902 -13.024394,-3.80902 z"
       id="path861"
       sodipodi:nodetypes="cccc" />
    <path
       style="color:#000000;font-style:normal;font-variant:normal;font-weight:normal;font-stretch:normal;font-size:medium;line-height:normal;font-family:sans-serif;font-variant-ligatures:normal;font-variant-position:normal;font-variant-caps:normal;font-variant-numeric:normal;font-variant-alternates:normal;font-variant-east-asian:normal;font-feature-settings:normal;font-variation-settings:normal;text-indent:0;text-align:start;text-decoration:none;text-decoration-line:none;text-decoration-style:solid;text-decoration-color:#000000;letter-spacing:normal;word-spacing:normal;text-transform:none;writing-mode:lr-tb;direction:ltr;text-orientation:mixed;dominant-baseline:auto;baseline-shift:baseline;text-anchor:start;white-space:normal;shape-padding:0;shape-margin:0;inline-size:0;clip-rule:nonzero;display:inline;overflow:visible;visibility:visible;opacity:1;isolation:auto;mix-blend-mode:normal;color-interpolation:sRGB;color-interpolation-filters:linearRGB;solid-color:#000000;solid-opacity:1;vector-effect:none;fill:#000000;fill-opacity:1;fill-rule:nonzero;stroke:none;stroke-width:0.45973;stroke-linecap:butt;stroke-linejoin:miter;stroke-miterlimit:4;stroke-dasharray:none;stroke-dashoffset:0;stroke-opacity:1;color-rendering:auto;image-rendering:auto;shape-rendering:auto;text-rendering:auto;enable-background:accumulate;stop-color:#000000;stop-opacity:1"
       d="m 87.559789,142.10125 c -2.292199,4.618 -7.641706,9.79232 -11.092912,13.61122 4.888777,2.61557 7.311961,-1.35547 10.228268,-3.39708 1.723242,-1.16364 6.371504,-4.64347 10.964006,-0.63984 10.053219,8.76393 15.435849,24.88563 31.253729,24.6951 34.05767,0.3017 56.94543,-18.67657 59.14996,-25.93575 -0.16966,-5.57575 -0.0374,-16.03674 -0.0374,-16.03674 -14.94918,18.97137 -27.38876,25.55005 -52.50145,26.50022 -13.02751,0.15705 -23.85597,-7.28134 -36.392459,-13.46128 -3.436373,-1.69401 -8.891315,-5.43529 -11.572259,-5.33585 z"
       id="path863"
       sodipodi:nodetypes="cccsccccscc" />
    <circle
       style="fill:#ffffff;fill-opacity:1;stroke:none;stroke-width:6.08161;stroke-linecap:round;stroke-miterlimit:4;stroke-dasharray:none;stroke-opacity:1;paint-order:stroke fill markers"
       id="path869"
       cx="88.113396"
       cy="150.94464"
       r="1.8737941" />
    <circle
       style="fill:#ffffff;fill-opacity:1;stroke:none;stroke-width:3.48958;stroke-linecap:round;stroke-miterlimit:4;stroke-dasharray:none;stroke-opacity:1;paint-order:stroke fill markers"
       id="path869-3"
       cx="90.509453"
       cy="150.29951"
       r="1.0751283" />
    <path
       style="fill:#ffffff;stroke:none;stroke-width:0.12164px;stroke-linecap:butt;stroke-linejoin:miter;stroke-opacity:1"
       d="m 183.89193,161.14295 c 0,0 -11.54992,7.86377 -19.78233,1.10574 -8.23241,-6.75781 -9.33829,13.14737 6.26643,14.13026 15.60475,0.98302 13.5159,-15.236 13.5159,-15.236 z"
       id="path891"
       sodipodi:nodetypes="ccsc" />
    <path
       style="fill:#ffffff;stroke:none;stroke-width:0.12164px;stroke-linecap:butt;stroke-linejoin:miter;stroke-opacity:1"
       d="m 24.710436,104.54599 c 0,0 -2.085186,17.72419 14.248891,22.24214 16.334081,4.51797 -29.8878981,5.21301 -29.8878981,5.21301 z"
       id="path893" />
    <path
       style="fill:#ffffff;stroke:none;stroke-width:0.12164px;stroke-linecap:butt;stroke-linejoin:miter;stroke-opacity:1"
       d="m 77.490563,69.618571 c 0,0 -21.151468,3.703751 -25.769721,20.009748 C 47.102594,105.93432 46.691639,59.70895 46.691639,59.70895 Z"
       id="path893-2"
       inkscape:transform-center-x="-6.4482105"
       inkscape:transform-center-y="0.57860972"
       sodipodi:nodetypes="cscc" />
  </g>
</svg>
