<?xml version="1.0" encoding="UTF-8" standalone="no"?>
<svg
   xmlns:dc="http://purl.org/dc/elements/1.1/"
   xmlns:cc="http://creativecommons.org/ns#"
   xmlns:rdf="http://www.w3.org/1999/02/22-rdf-syntax-ns#"
   xmlns:svg="http://www.w3.org/2000/svg"
   xmlns="http://www.w3.org/2000/svg"
   xmlns:sodipodi="http://sodipodi.sourceforge.net/DTD/sodipodi-0.dtd"
   xmlns:inkscape="http://www.inkscape.org/namespaces/inkscape"
   width="210mm"
   height="297mm"
   viewBox="0 0 210 297"
   version="1.1"
   id="svg8"
   inkscape:version="1.0.2-2 (e86c870879, 2021-01-15)"
   sodipodi:docname="said.svg">
  <defs
     id="defs2" />
  <sodipodi:namedview
     id="base"
     pagecolor="#ffffff"
     bordercolor="#666666"
     borderopacity="1.0"
     inkscape:pageopacity="0.0"
     inkscape:pageshadow="2"
     inkscape:zoom="0.35"
     inkscape:cx="533.50506"
     inkscape:cy="585.39736"
     inkscape:document-units="mm"
     inkscape:current-layer="layer1"
     inkscape:document-rotation="0"
     showgrid="false"
     inkscape:window-width="1280"
     inkscape:window-height="1017"
     inkscape:window-x="-8"
     inkscape:window-y="-8"
     inkscape:window-maximized="0" />
  <metadata
     id="metadata5">
    <rdf:RDF>
      <cc:Work
         rdf:about="">
        <dc:format>image/svg+xml</dc:format>
        <dc:type
           rdf:resource="http://purl.org/dc/dcmitype/StillImage" />
        <dc:title></dc:title>
      </cc:Work>
    </rdf:RDF>
  </metadata>
  <g
     inkscape:label="Layer 1"
     inkscape:groupmode="layer"
     id="layer1">
    <path
       style="color:#000000;font-style:normal;font-variant:normal;font-weight:normal;font-stretch:normal;font-size:medium;line-height:normal;font-family:sans-serif;font-variant-ligatures:normal;font-variant-position:normal;font-variant-caps:normal;font-variant-numeric:normal;font-variant-alternates:normal;font-variant-east-asian:normal;font-feature-settings:normal;font-variation-settings:normal;text-indent:0;text-align:start;text-decoration:none;text-decoration-line:none;text-decoration-style:solid;text-decoration-color:#000000;letter-spacing:normal;word-spacing:normal;text-transform:none;writing-mode:lr-tb;direction:ltr;text-orientation:mixed;dominant-baseline:auto;baseline-shift:baseline;text-anchor:start;white-space:normal;shape-padding:0;shape-margin:0;inline-size:0;clip-rule:nonzero;display:inline;overflow:visible;visibility:visible;opacity:1;isolation:auto;mix-blend-mode:normal;color-interpolation:sRGB;color-interpolation-filters:linearRGB;solid-color:#000000;solid-opacity:1;vector-effect:none;fill:#000000;fill-opacity:1;fill-rule:nonzero;stroke:none;stroke-linecap:butt;stroke-linejoin:miter;stroke-miterlimit:4;stroke-dasharray:none;stroke-dashoffset:0;stroke-opacity:1;color-rendering:auto;image-rendering:auto;shape-rendering:auto;text-rendering:auto;enable-background:accumulate;stop-color:#000000;stop-opacity:1"
       d="M 118.9082,33.464844 C 37.867066,23.863194 -40.182981,89.745625 -13.328081,149.39443 6.7710388,180.56349 88.500536,138.07077 94.71447,156.05831 65.712456,210.75203 -16.885943,255.69086 17.831825,203.81548 26.980723,192.10461 33.316742,187.7438 42.904677,187.3265 c -2.693133,-4.02852 -3.171381,-4.60802 -3.408011,-10.42059 0.183831,9.24706 20.270891,14.24772 22.237409,14.21511 C 83.462656,171.98827 83.586403,164.70564 83.586403,164.70564 27.963336,168.97346 4.3023844,170.3827 -9.2447663,199.2282 -48.116623,338.88411 167.17976,158.84282 120.73507,119.22479 c -28.443861,11.4404 -78.235805,12.26594 -79.98058,-5.2328 -3.961066,-42.755125 24.422413,-62.552838 68.0502,-61.931443 10.82502,-0.163581 3.94168,35.503635 -18.192042,44.322719 -7.198225,2.868102 -14.150516,10.065514 -17.282197,14.160074 -11.624409,13.08234 7.54548,12.20625 25.974237,5.90978 L 131.79688,68.71875 C 149.80324,40.803161 129.35181,34.53435 118.9082,33.464844 Z"
       id="path833"
       sodipodi:nodetypes="ccccccccccccscccc" />
    <path
       style="fill:#ffffff;fill-opacity:1;stroke:none;stroke-width:0.264583px;stroke-linecap:butt;stroke-linejoin:miter;stroke-opacity:1"
       d="m 49.050277,120.64319 c 0,0 -13.218515,4.30759 -13.029526,-33.112059 6.84712,27.243939 13.596491,30.655209 13.596491,30.655209 z"
       id="path839"
       sodipodi:nodetypes="cccc" />
    <path
       style="fill:#fdfdfd;fill-opacity:1;stroke:none;stroke-width:0.264583px;stroke-linecap:butt;stroke-linejoin:miter;stroke-opacity:1"
       d="m 75.370004,107.17508 c 0,0 9.621706,-11.759859 26.192416,-11.49259 C 80.052029,87.539789 73.231848,87.397135 73.231848,87.397135 Z"
       id="path861"
       sodipodi:nodetypes="cccc" />
    <path
       style="color:#000000;font-style:normal;font-variant:normal;font-weight:normal;font-stretch:normal;font-size:medium;line-height:normal;font-family:sans-serif;font-variant-ligatures:normal;font-variant-position:normal;font-variant-caps:normal;font-variant-numeric:normal;font-variant-alternates:normal;font-variant-east-asian:normal;font-feature-settings:normal;font-variation-settings:normal;text-indent:0;text-align:start;text-decoration:none;text-decoration-line:none;text-decoration-style:solid;text-decoration-color:#000000;letter-spacing:normal;word-spacing:normal;text-transform:none;writing-mode:lr-tb;direction:ltr;text-orientation:mixed;dominant-baseline:auto;baseline-shift:baseline;text-anchor:start;white-space:normal;shape-padding:0;shape-margin:0;inline-size:0;clip-rule:nonzero;display:inline;overflow:visible;visibility:visible;opacity:1;isolation:auto;mix-blend-mode:normal;color-interpolation:sRGB;color-interpolation-filters:linearRGB;solid-color:#000000;solid-opacity:1;vector-effect:none;fill:#000000;fill-opacity:1;fill-rule:nonzero;stroke:none;stroke-linecap:butt;stroke-linejoin:miter;stroke-miterlimit:4;stroke-dasharray:none;stroke-dashoffset:0;stroke-opacity:1;color-rendering:auto;image-rendering:auto;shape-rendering:auto;text-rendering:auto;enable-background:accumulate;stop-color:#000000;stop-opacity:1"
       d="m 112.51893,176.93997 c -4.98602,10.04499 -16.622209,21.30019 -24.129242,29.60693 10.634021,5.68932 15.904892,-2.94856 22.248382,-7.38922 3.74844,-2.531 13.85932,-10.1005 23.84895,-1.39192 21.86758,19.06333 33.57586,54.13113 67.98263,53.7166 74.08224,0.65635 123.8676,-40.62509 128.66275,-56.41536 -0.36915,-12.12821 -0.0802,-34.8827 -0.0802,-34.8827 -32.51736,41.26648 -59.57584,55.57617 -114.20078,57.64309 -28.33729,0.34141 -51.89126,-15.83841 -79.16059,-29.28104 -7.47475,-3.68473 -19.34032,-11.82275 -25.17187,-11.60638 z"
       id="path863"
       sodipodi:nodetypes="cccsccccscc" />
    <circle
       style="fill:#ffffff;fill-opacity:1;stroke:none;stroke-width:13.2292;stroke-linecap:round;stroke-miterlimit:4;stroke-dasharray:none;stroke-opacity:1;paint-order:stroke fill markers"
       id="path869"
       cx="113.72319"
       cy="196.17584"
       r="4.07586" />
    <circle
       style="fill:#ffffff;fill-opacity:1;stroke:none;stroke-width:7.59052;stroke-linecap:round;stroke-miterlimit:4;stroke-dasharray:none;stroke-opacity:1;paint-order:stroke fill markers"
       id="path869-3"
       cx="118.93495"
       cy="194.77266"
       r="2.338608" />
    <path
       style="fill:#ffffff;stroke:none;stroke-width:0.264583px;stroke-linecap:butt;stroke-linejoin:miter;stroke-opacity:1"
       d="m 322.05977,218.3592 c 0,0 -25.12332,17.10525 -43.03038,2.40543 -17.90706,-14.69983 -20.31249,28.59783 13.63073,30.73599 33.94324,2.13816 29.39965,-33.14142 29.39965,-33.14142 z"
       id="path891"
       sodipodi:nodetypes="ccsc" />
    <path
       style="fill:#ffffff;stroke:none;stroke-width:0.264583px;stroke-linecap:butt;stroke-linejoin:miter;stroke-opacity:1"
       d="m -24.190476,95.249998 c 0,0 -4.535714,38.553562 30.9940474,48.380952 35.5297616,9.82738 -65.0119044,11.33928 -65.0119044,11.33928 z"
       id="path893" />
    <path
       style="fill:#ffffff;stroke:none;stroke-width:0.264583px;stroke-linecap:butt;stroke-linejoin:miter;stroke-opacity:1"
       d="m 90.616396,19.276193 c 0,0 -46.008502,8.056346 -56.054085,43.525034 C 24.516736,98.269916 23.622831,-2.279145 23.622831,-2.279145 Z"
       id="path893-2"
       inkscape:transform-center-x="-14.026086"
       inkscape:transform-center-y="1.2585915"
       sodipodi:nodetypes="cscc" />
  </g>
</svg>
